<?xml version="1.0" encoding="UTF-8"?>
<!DOCTYPE svg PUBLIC "-//W3C//DTD SVG 1.1//EN" "http://www.w3.org/Graphics/SVG/1.1/DTD/svg11.dtd">
<svg xmlns="http://www.w3.org/2000/svg" version="1.1" width="209px" height="241px" style="shape-rendering:geometricPrecision; text-rendering:geometricPrecision; image-rendering:optimizeQuality; fill-rule:evenodd; clip-rule:evenodd" xmlns:xlink="http://www.w3.org/1999/xlink">
<g><path style="opacity:1" fill="#030202" d="M -0.5,-0.5 C 69.1667,-0.5 138.833,-0.5 208.5,-0.5C 208.5,68.8333 208.5,138.167 208.5,207.5C 199.578,206.363 190.578,206.196 181.5,207C 179.475,208.194 179.141,209.694 180.5,211.5C 183.768,212.487 187.102,212.82 190.5,212.5C 190.279,221.866 190.613,231.199 191.5,240.5C 184.833,240.5 178.167,240.5 171.5,240.5C 177.663,237.835 179.83,233.168 178,226.5C 173.794,223.894 173.46,220.894 177,217.5C 177.031,208.719 172.531,205.053 163.5,206.5C 161.167,206.667 158.833,206.833 156.5,207C 155.333,207.5 154.5,208.333 154,209.5C 153.333,218.833 153.333,228.167 154,237.5C 155.039,238.244 155.539,239.244 155.5,240.5C 144.5,240.5 133.5,240.5 122.5,240.5C 130.273,237.509 134.273,231.676 134.5,223C 133.459,209.979 126.459,204.312 113.5,206C 103.361,211.128 99.8609,219.295 103,230.5C 105.106,235.443 108.606,238.776 113.5,240.5C 107.5,240.5 101.5,240.5 95.5,240.5C 95.5,229.5 95.5,218.5 95.5,207.5C 93.396,207.201 91.396,207.534 89.5,208.5C 86.3333,213.5 83.1667,218.5 80,223.5C 76.798,217.084 72.6314,211.417 67.5,206.5C 66.5224,206.977 65.6891,207.643 65,208.5C 64.1917,219.243 64.3583,229.91 65.5,240.5C 59.8333,240.5 54.1667,240.5 48.5,240.5C 49.4466,231.22 49.7799,221.886 49.5,212.5C 52.8984,212.82 56.2317,212.487 59.5,211.5C 60.8587,209.694 60.5254,208.194 58.5,207C 49.5883,206.184 40.755,206.35 32,207.5C 31.2797,209.112 31.4464,210.612 32.5,212C 35.8168,212.498 39.1501,212.665 42.5,212.5C 42.1945,221.917 42.5279,231.25 43.5,240.5C 37.5,240.5 31.5,240.5 25.5,240.5C 26.8087,229.561 26.8087,218.561 25.5,207.5C 24.549,206.674 23.549,206.508 22.5,207C 16.6169,213.882 11.1169,221.048 6,228.5C 5.83108,221.476 5.33108,214.476 4.5,207.5C 2.45329,206.096 0.786619,206.429 -0.5,208.5C -0.5,138.833 -0.5,69.1667 -0.5,-0.5 Z"/></g>
<g><path style="opacity:1" fill="#eaeaea" d="M 96.5,0.5 C 103.678,2.51525 104.178,5.51525 98,9.5C 92.7333,7.21714 92.2333,4.21714 96.5,0.5 Z"/></g>
<g><path style="opacity:1" fill="#efefef" d="M 81.5,5.5 C 88.241,5.3902 90.4077,8.3902 88,14.5C 84.7291,17.1972 81.7291,16.8639 79,13.5C 78.0228,10.1827 78.8562,7.51599 81.5,5.5 Z"/></g>
<g><path style="opacity:1" fill="#ededed" d="M 105.5,12.5 C 112.821,13.3193 114.154,16.486 109.5,22C 102.075,21.4845 100.742,18.3178 105.5,12.5 Z"/></g>
<g><path style="opacity:1" fill="#f6f6f6" d="M 65.5,14.5 C 73.4863,13.998 75.4863,17.1647 71.5,24C 66.5937,25.756 63.9271,24.0893 63.5,19C 63.5186,17.167 64.1852,15.667 65.5,14.5 Z"/></g>
<g><path style="opacity:1" fill="#f4f4f4" d="M 90.5,19.5 C 97.7707,19.0357 100.604,22.3691 99,29.5C 95,34.8333 91,34.8333 87,29.5C 86.3333,27.5 86.3333,25.5 87,23.5C 88.3756,22.2949 89.5423,20.9616 90.5,19.5 Z"/></g>
<g><path style="opacity:1" fill="#f0f0f0" d="M 49.5,23.5 C 57.6052,22.5603 59.9385,25.727 56.5,33C 51.6981,35.2659 48.6981,33.7659 47.5,28.5C 47.9024,26.6998 48.5691,25.0332 49.5,23.5 Z"/></g>
<g><path style="opacity:1" fill="#f10943" d="M 74.5,24.5 C 84.4154,25.246 87.5821,30.246 84,39.5C 79.6489,44.2545 74.9823,44.5878 70,40.5C 65.6902,33.4604 67.1902,28.1271 74.5,24.5 Z"/></g>
<g><path style="opacity:1" fill="#e5e5e5" d="M 113.5,28.5 C 120.004,28.1377 121.671,30.6377 118.5,36C 111.745,36.7558 110.078,34.2558 113.5,28.5 Z"/></g>
<g><path style="opacity:1" fill="#f40944" d="M 14.5,32.5 C 18.0289,31.8894 19.8622,33.2227 20,36.5C 14.6479,39.877 12.8145,38.5437 14.5,32.5 Z"/></g>
<g><path style="opacity:1" fill="#ec0942" d="M 36.5,31.5 C 42.873,31.3677 45.373,34.3677 44,40.5C 38.8149,45.0784 34.9816,44.0784 32.5,37.5C 33.4671,35.2099 34.8004,33.2099 36.5,31.5 Z"/></g>
<g><path style="opacity:1" fill="#f4f4f4" d="M 97.5,35.5 C 106.049,35.5208 108.716,39.3541 105.5,47C 99.4821,50.1115 95.4821,48.4448 93.5,42C 94.25,39.4288 95.5833,37.2622 97.5,35.5 Z"/></g>
<g><path style="opacity:1" fill="#f2f2f2" d="M 59.5,38.5 C 66.9854,39.8052 68.3187,43.3052 63.5,49C 57.4983,49.9931 55.3317,47.4931 57,41.5C 58.045,40.6266 58.8783,39.6266 59.5,38.5 Z"/></g>
<g><path style="opacity:1" fill="#f00943" d="M 20.5,40.5 C 29.4905,39.9869 32.1572,43.8202 28.5,52C 20.2429,54.9601 16.7429,52.1267 18,43.5C 19.045,42.6266 19.8783,41.6266 20.5,40.5 Z"/></g>
<g><path style="opacity:1" fill="#f5f5f5" d="M 82.5,43.5 C 91.5226,43.0616 94.1893,46.8949 90.5,55C 82.2463,58.0813 78.7463,55.2479 80,46.5C 81.045,45.6266 81.8783,44.6266 82.5,43.5 Z"/></g>
<g><path style="opacity:1" fill="#eeeeee" d="M 123.5,43.5 C 127.976,43.8222 129.476,46.1556 128,50.5C 124.505,53.3365 122.005,52.5031 120.5,48C 120.957,46.0598 121.957,44.5598 123.5,43.5 Z"/></g>
<g><path style="opacity:1" fill="#ee0943" d="M 42.5,46.5 C 48.3176,44.969 51.9843,46.969 53.5,52.5C 51.1441,59.7686 46.9775,61.102 41,56.5C 38.9254,52.7942 39.4254,49.4609 42.5,46.5 Z"/></g>
<g><path style="opacity:1" fill="#f5f5f5" d="M 104.5,50.5 C 113.805,49.9514 116.472,53.7848 112.5,62C 106.648,64.9054 102.981,63.2387 101.5,57C 101.84,54.4887 102.84,52.322 104.5,50.5 Z"/></g>
<g><path style="opacity:1" fill="#f4f4f4" d="M 67.5,52.5 C 73.6408,51.8159 76.8075,54.4826 77,60.5C 73.1285,66.7561 68.7951,67.0894 64,61.5C 63.3333,59.8333 63.3333,58.1667 64,56.5C 65.3756,55.2949 66.5423,53.9616 67.5,52.5 Z"/></g>
<g><path style="opacity:1" fill="#f00943" d="M 28.5,54.5 C 36.1609,53.663 39.6609,56.9964 39,64.5C 34.1941,71.0527 29.5274,71.0527 25,64.5C 24.3333,62.5 24.3333,60.5 25,58.5C 26.3756,57.2949 27.5423,55.9616 28.5,54.5 Z"/></g>
<g><path style="opacity:1" fill="#f4f4f4" d="M 91.5,59.5 C 97.6408,58.8159 100.808,61.4826 101,67.5C 97.1285,73.7561 92.7951,74.0894 88,68.5C 87.3333,66.8333 87.3333,65.1667 88,63.5C 89.3756,62.2949 90.5423,60.9616 91.5,59.5 Z"/></g>
<g><path style="opacity:1" fill="#e9e9e9" d="M 131.5,58.5 C 136.012,58.8689 137.512,61.2022 136,65.5C 132.187,68.5886 129.687,67.7552 128.5,63C 128.557,60.7911 129.557,59.2911 131.5,58.5 Z"/></g>
<g><path style="opacity:1" fill="#f20944" d="M 53.5,60.5 C 61.687,61.5399 64.187,65.8732 61,73.5C 54.3343,77.9226 49.8343,76.256 47.5,68.5C 48.0571,64.7067 50.0571,62.0401 53.5,60.5 Z"/></g>
<g><path style="opacity:1" fill="#eb0942" d="M 15.5,65.5 C 19.7029,64.7021 22.3695,66.3688 23.5,70.5C 21.5711,75.7141 18.4045,76.7141 14,73.5C 13.1093,70.5024 13.6093,67.8357 15.5,65.5 Z"/></g>
<g><path style="opacity:1" fill="#f1f1f1" d="M 115.5,67.5 C 121.989,67.1563 123.989,69.9896 121.5,76C 117.003,78.4185 114.337,77.0851 113.5,72C 113.519,70.167 114.185,68.667 115.5,67.5 Z"/></g>
<g><path style="opacity:1" fill="#ee0943" d="M 37.5,69.5 C 45.8849,69.008 49.0515,72.6747 47,80.5C 42.1624,86.0359 37.8291,85.7026 34,79.5C 33.3333,77.5 33.3333,75.5 34,73.5C 35.3756,72.2949 36.5423,70.9616 37.5,69.5 Z"/></g>
<g><path style="opacity:1" fill="#eeeeee" d="M 76.5,69.5 C 82.6646,68.8293 85.1646,71.496 84,77.5C 80.2552,81.5661 76.9218,81.2327 74,76.5C 73.6826,73.793 74.5159,71.4597 76.5,69.5 Z"/></g>
<g><path style="opacity:1" fill="#ededed" d="M 179.5,71.5 C 185.572,72.7117 186.905,75.8784 183.5,81C 178.647,82.1296 176.147,80.2962 176,75.5C 176.69,73.6498 177.856,72.3164 179.5,71.5 Z"/></g>
<g><path style="opacity:1" fill="#f4f4f4" d="M 100.5,75.5 C 107.12,74.9545 110.286,77.9545 110,84.5C 105.667,89.8333 101.333,89.8333 97,84.5C 96.3333,82.8333 96.3333,81.1667 97,79.5C 98.3756,78.2949 99.5423,76.9616 100.5,75.5 Z"/></g>
<g><path style="opacity:1" fill="#d5083c" d="M 26.5,77.5 C 28.4841,77.484 29.4841,78.484 29.5,80.5C 29.5658,82.2664 28.7324,83.2664 27,83.5C 23.9113,81.7956 23.7446,79.7956 26.5,77.5 Z"/></g>
<g><path style="opacity:1" fill="#f1f1f1" d="M 62.5,77.5 C 67.757,77.688 69.9237,80.3547 69,85.5C 65.6667,89.5 62.3333,89.5 59,85.5C 58.2793,81.9463 59.4459,79.2796 62.5,77.5 Z"/></g>
<g><path style="opacity:1" fill="#f0f0f0" d="M 164.5,80.5 C 169.989,80.504 171.822,83.1707 170,88.5C 166.988,91.2499 164.321,90.9166 162,87.5C 160.916,84.3411 161.75,82.0078 164.5,80.5 Z"/></g>
<g><path style="opacity:1" fill="#f5f5f5" d="M 86.5,82.5 C 95.4047,84.7639 96.7381,89.2639 90.5,96C 83.8444,96.3416 81.011,93.1749 82,86.5C 83.3968,84.9297 84.8968,83.5964 86.5,82.5 Z"/></g>
<g><path style="opacity:1" fill="#eeeeee" d="M 124.5,83.5 C 131.803,84.2666 133.136,87.4332 128.5,93C 121.075,92.4845 119.742,89.3178 124.5,83.5 Z"/></g>
<g><path style="opacity:1" fill="#ededed" d="M 46.5,86.5 C 54.8185,86.9869 56.4851,90.4869 51.5,97C 43.0878,96.8117 41.4211,93.3117 46.5,86.5 Z"/></g>
<g><path style="opacity:1" fill="#f1f1f1" d="M 186.5,87.5 C 193.602,87.0733 195.602,89.9066 192.5,96C 184.749,97.0913 182.749,94.258 186.5,87.5 Z"/></g>
<g><path style="opacity:1" fill="#f5f5f5" d="M 109.5,89.5 C 116.329,88.8277 119.163,91.8277 118,98.5C 115.947,102.292 112.781,103.458 108.5,102C 104.286,97.3615 104.619,93.1948 109.5,89.5 Z"/></g>
<g><path style="opacity:1" fill="#f0f0f0" d="M 149.5,89.5 C 155.566,90.6589 156.9,93.8256 153.5,99C 147.498,99.9931 145.332,97.4931 147,91.5C 147.995,90.9341 148.828,90.2674 149.5,89.5 Z"/></g>
<g><path style="opacity:1" fill="#f5f5f5" d="M 70.5,92.5 C 77.8247,91.9924 80.6581,95.3258 79,102.5C 74.601,106.654 70.601,106.321 67,101.5C 65.9804,97.5532 67.1471,94.5532 70.5,92.5 Z"/></g>
<g><path style="opacity:1" fill="#f0f0f0" d="M 171.5,96.5 C 178.94,95.7533 180.94,98.5866 177.5,105C 170.188,105.871 168.188,103.038 171.5,96.5 Z"/></g>
<g><path style="opacity:1" fill="#f0f0f0" d="M 32.5,96.5 C 38.5664,97.6589 39.8998,100.826 36.5,106C 30.4983,106.993 28.3317,104.493 30,98.5C 30.9947,97.9341 31.828,97.2674 32.5,96.5 Z"/></g>
<g><path style="opacity:1" fill="#f3f3f3" d="M 94.5,98.5 C 101.612,99.0483 103.945,102.715 101.5,109.5C 95.6789,113.93 91.6789,112.597 89.5,105.5C 90.0141,102.323 91.6807,99.9894 94.5,98.5 Z"/></g>
<g><path style="opacity:1" fill="#eeeeee" d="M 133.5,98.5 C 140.821,99.3193 142.154,102.486 137.5,108C 132.333,108.833 130.167,106.667 131,101.5C 132.045,100.627 132.878,99.6266 133.5,98.5 Z"/></g>
<g><path style="opacity:1" fill="#f5f5f5" d="M 55.5,101.5 C 61.0284,100.069 64.3617,102.069 65.5,107.5C 63.1441,114.769 58.9775,116.102 53,111.5C 51.8634,107.537 52.6967,104.204 55.5,101.5 Z"/></g>
<g><path style="opacity:1" fill="#eeeeee" d="M 195.5,103.5 C 201,102.831 203.167,105.165 202,110.5C 198.592,114.483 195.592,114.15 193,109.5C 192.333,108.5 192.333,107.5 193,106.5C 194.045,105.627 194.878,104.627 195.5,103.5 Z"/></g>
<g><path style="opacity:1" fill="#f5f5f5" d="M 116.5,105.5 C 123.827,104.329 126.994,107.329 126,114.5C 121.951,119.818 117.951,119.818 114,114.5C 112.927,110.9 113.76,107.9 116.5,105.5 Z"/></g>
<g><path style="opacity:1" fill="#f2f2f2" d="M 158.5,104.5 C 164.572,105.712 165.905,108.878 162.5,114C 156.498,114.993 154.332,112.493 156,106.5C 156.995,105.934 157.828,105.267 158.5,104.5 Z"/></g>
<g><path style="opacity:1" fill="#ededed" d="M 16.5,106.5 C 23.251,106.38 25.251,109.214 22.5,115C 19.4904,117.222 16.9904,116.722 15,113.5C 14.1668,110.829 14.6668,108.496 16.5,106.5 Z"/></g>
<g><path style="opacity:1" fill="#f7f7f7" d="M 78.5,108.5 C 85.7988,107.371 88.9654,110.371 88,117.5C 84.3854,122.423 80.3854,122.756 76,118.5C 74.8613,114.579 75.6946,111.246 78.5,108.5 Z"/></g>
<g><path style="opacity:1" fill="#f7f7f7" d="M 39.5,110.5 C 46.7988,109.371 49.9654,112.371 49,119.5C 45.3058,124.342 41.3058,124.675 37,120.5C 35.8613,116.579 36.6946,113.246 39.5,110.5 Z"/></g>
<g><path style="opacity:1" fill="#f0f0f0" d="M 180.5,111.5 C 187.997,110.804 189.997,113.637 186.5,120C 179.215,120.934 177.215,118.101 180.5,111.5 Z"/></g>
<g><path style="opacity:1" fill="#ededed" d="M 103.5,113.5 C 111.018,113.887 113.518,117.554 111,124.5C 105.023,129.102 100.856,127.769 98.5,120.5C 99.0599,117.288 100.727,114.955 103.5,113.5 Z"/></g>
<g><path style="opacity:1" fill="#f2f2f2" d="M 142.5,114.5 C 149.486,114.331 151.153,117.164 147.5,123C 143.26,124.539 140.593,123.206 139.5,119C 140.315,117.357 141.315,115.857 142.5,114.5 Z"/></g>
<g><path style="opacity:1" fill="#f6f6f6" d="M 64.5,116.5 C 71.8798,116.043 74.7131,119.376 73,126.5C 70.4406,129.349 67.2739,130.183 63.5,129C 59.3089,124.46 59.6422,120.293 64.5,116.5 Z"/></g>
<g><path style="opacity:1" fill="#f5f5f5" d="M 24.5,119.5 C 33.5226,119.062 36.1893,122.895 32.5,131C 24.2463,134.081 20.7463,131.248 22,122.5C 23.045,121.627 23.8783,120.627 24.5,119.5 Z"/></g>
<g><path style="opacity:1" fill="#ededed" d="M 165.5,118.5 C 173.018,118.887 175.518,122.554 173,129.5C 167.023,134.102 162.856,132.769 160.5,125.5C 161.06,122.288 162.727,119.955 165.5,118.5 Z"/></g>
<g><path style="opacity:1" fill="#f2f2f2" d="M 127.5,120.5 C 135.103,120.91 137.603,124.577 135,131.5C 130.998,135.508 127.332,135.175 124,130.5C 122.581,126.082 123.748,122.749 127.5,120.5 Z"/></g>
<g><path style="opacity:1" fill="#f5f5f5" d="M 88.5,123.5 C 95.1411,123.639 97.9745,126.972 97,133.5C 93,138.833 89,138.833 85,133.5C 84.3333,131.5 84.3333,129.5 85,127.5C 86.3756,126.295 87.5423,124.962 88.5,123.5 Z"/></g>
<g><path style="opacity:1" fill="#f4f4f4" d="M 48.5,125.5 C 56.0448,125.863 58.5448,129.529 56,136.5C 52.0434,140.53 48.3768,140.197 45,135.5C 43.7563,131.191 44.9229,127.858 48.5,125.5 Z"/></g>
<g><path style="opacity:1" fill="#f6f6f6" d="M 149.5,127.5 C 153.639,126.704 156.805,128.037 159,131.5C 160.249,137.011 158.082,140.011 152.5,140.5C 146.905,139.422 145.072,136.088 147,130.5C 148.045,129.627 148.878,128.627 149.5,127.5 Z"/></g>
<g><path style="opacity:1" fill="#efefef" d="M 190.5,126.5 C 196.758,127.477 198.091,130.644 194.5,136C 188.498,136.993 186.332,134.493 188,128.5C 188.995,127.934 189.828,127.267 190.5,126.5 Z"/></g>
<g><path style="opacity:1" fill="#efefef" d="M 9.5,130.5 C 16.6095,129.904 18.6095,132.737 15.5,139C 7.74896,140.091 5.74896,137.258 9.5,130.5 Z"/></g>
<g><path style="opacity:1" fill="#f5f5f5" d="M 110.5,130.5 C 119.745,129.899 122.411,133.732 118.5,142C 112.35,144.925 108.683,143.092 107.5,136.5C 107.628,134.045 108.628,132.045 110.5,130.5 Z"/></g>
<g><path style="opacity:1" fill="#f5f5f5" d="M 71.5,133.5 C 80.8053,132.951 83.472,136.785 79.5,145C 72.388,147.554 68.888,145.054 69,137.5C 69.6622,136.016 70.4955,134.683 71.5,133.5 Z"/></g>
<g><path style="opacity:1" fill="#f6f6f6" d="M 32.5,134.5 C 39.8247,133.992 42.6581,137.326 41,144.5C 36.601,148.654 32.601,148.321 29,143.5C 28.3333,141.833 28.3333,140.167 29,138.5C 30.3756,137.295 31.5423,135.962 32.5,134.5 Z"/></g>
<g><path style="opacity:1" fill="#f1f1f1" d="M 175.5,134.5 C 181.618,135.118 184.118,138.452 183,144.5C 179.385,149.423 175.385,149.756 171,145.5C 169.391,140.391 170.891,136.725 175.5,134.5 Z"/></g>
<g><path style="opacity:1" fill="#f5f5f5" d="M 136.5,136.5 C 143.369,136.538 145.869,139.871 144,146.5C 143.5,147.667 142.667,148.5 141.5,149C 134.718,150.875 131.552,148.375 132,141.5C 133.025,139.313 134.525,137.646 136.5,136.5 Z"/></g>
<g><path style="opacity:1" fill="#f7f7f7" d="M 95.5,138.5 C 104.745,137.899 107.411,141.732 103.5,150C 99.2204,152.477 95.7204,151.644 93,147.5C 91.9271,143.9 92.7605,140.9 95.5,138.5 Z"/></g>
<g><path style="opacity:1" fill="#f5f5f5" d="M 57.5,141.5 C 64.7707,141.036 67.604,144.369 66,151.5C 62,155.5 58,155.5 54,151.5C 52.7563,147.191 53.9229,143.858 57.5,141.5 Z"/></g>
<g><path style="opacity:1" fill="#f3f3f3" d="M 161.5,142.5 C 170.405,144.764 171.738,149.264 165.5,156C 158.215,156.962 155.382,153.795 157,146.5C 158.397,144.93 159.897,143.596 161.5,142.5 Z"/></g>
<g><path style="opacity:1" fill="#f0f0f0" d="M 18.5,145.5 C 26.0451,146.062 27.3784,149.229 22.5,155C 17.6667,155.5 15.5,153.333 16,148.5C 17.045,147.627 17.8783,146.627 18.5,145.5 Z"/></g>
<g><path style="opacity:1" fill="#f1f1f1" d="M 121.5,145.5 C 128.193,145.685 131.026,149.019 130,155.5C 124.038,161.468 119.872,160.468 117.5,152.5C 117.577,149.335 118.91,147.001 121.5,145.5 Z"/></g>
<g><path style="opacity:1" fill="#f3f3f3" d="M 83.5,147.5 C 90.6116,148.048 92.945,151.715 90.5,158.5C 84.6789,162.93 80.6789,161.597 78.5,154.5C 79.0141,151.323 80.6807,148.989 83.5,147.5 Z"/></g>
<g><path style="opacity:1" fill="#f3f3f3" d="M 43.5,149.5 C 49.67,150.162 52.17,153.495 51,159.5C 47.0979,164.804 43.0979,164.804 39,159.5C 37.5713,154.783 39.0713,151.45 43.5,149.5 Z"/></g>
<g><path style="opacity:1" fill="#f1f1f1" d="M 182.5,151.5 C 189.997,150.804 191.997,153.637 188.5,160C 181.161,160.809 179.161,157.976 182.5,151.5 Z"/></g>
<g><path style="opacity:1" fill="#f5f5f5" d="M 144.5,151.5 C 151.329,150.828 154.163,153.828 153,160.5C 150.947,164.292 147.781,165.458 143.5,164C 139.286,159.361 139.619,155.195 144.5,151.5 Z"/></g>
<g><path style="opacity:1" fill="#dcdcdc" d="M 10.5,153.5 C 13.9656,154.109 14.9656,155.942 13.5,159C 8.28943,159.546 7.28943,157.713 10.5,153.5 Z"/></g>
<g><path style="opacity:1" fill="#f6f6f6" d="M 105.5,154.5 C 114.306,154.464 116.639,158.297 112.5,166C 104.95,168.984 101.45,166.484 102,158.5C 102.69,156.65 103.856,155.316 105.5,154.5 Z"/></g>
<g><path style="opacity:1" fill="#f6f6f6" d="M 65.5,156.5 C 74.3695,156.517 76.7028,160.35 72.5,168C 64.8092,171.306 61.3092,168.806 62,160.5C 62.6897,158.65 63.8564,157.316 65.5,156.5 Z"/></g>
<g><path style="opacity:1" fill="#f8f8f8" d="M 168.5,159.5 C 174.665,158.829 177.165,161.496 176,167.5C 172.667,171.5 169.333,171.5 166,167.5C 165.023,164.183 165.856,161.516 168.5,159.5 Z"/></g>
<g><path style="opacity:1" fill="#f0f0f0" d="M 28.5,160.5 C 34.7577,161.477 36.0911,164.644 32.5,170C 26.4983,170.993 24.3317,168.493 26,162.5C 26.9947,161.934 27.828,161.267 28.5,160.5 Z"/></g>
<g><path style="opacity:1" fill="#f6f6f6" d="M 90.5,161.5 C 97.8798,161.043 100.713,164.376 99,171.5C 94.601,175.654 90.601,175.321 87,170.5C 85.9804,166.553 87.1471,163.553 90.5,161.5 Z"/></g>
<g><path style="opacity:1" fill="#f6f6f6" d="M 129.5,160.5 C 136.771,160.036 139.604,163.369 138,170.5C 134,174.5 130,174.5 126,170.5C 125.333,168.5 125.333,166.5 126,164.5C 127.376,163.295 128.542,161.962 129.5,160.5 Z"/></g>
<g><path style="opacity:1" fill="#ececec" d="M 51.5,167.5 C 59.0451,168.062 60.3784,171.229 55.5,177C 48.075,176.484 46.7416,173.318 51.5,167.5 Z"/></g>
<g><path style="opacity:1" fill="#f1f1f1" d="M 153.5,167.5 C 159.133,167.961 161.633,170.961 161,176.5C 157.333,180.5 153.667,180.5 150,176.5C 148.98,172.553 150.147,169.553 153.5,167.5 Z"/></g>
<g><path style="opacity:1" fill="#f3f3f3" d="M 114.5,169.5 C 120.641,168.816 123.808,171.483 124,177.5C 120.128,183.756 115.795,184.089 111,178.5C 110.043,174.639 111.21,171.639 114.5,169.5 Z"/></g>
<g><path style="opacity:1" fill="#eeeeee" d="M 76.5,172.5 C 83.6033,173.867 84.9366,177.367 80.5,183C 74.6667,183.833 72.1667,181.333 73,175.5C 74.1451,174.364 75.3117,173.364 76.5,172.5 Z"/></g>
<g><path style="opacity:1" fill="#eeeeee" d="M 36.5,175.5 C 41.8631,175.688 44.0297,178.355 43,183.5C 38.3006,187.824 34.8006,186.99 32.5,181C 33.0074,178.455 34.3407,176.621 36.5,175.5 Z"/></g>
<g><path style="opacity:1" fill="#f0f0f0" d="M 138.5,175.5 C 146.561,176.698 148.228,180.532 143.5,187C 137.166,188.329 134.332,185.829 135,179.5C 135.69,177.65 136.856,176.316 138.5,175.5 Z"/></g>
<g><path style="opacity:1" fill="#ededed" d="M 99.5,178.5 C 107.018,178.887 109.518,182.554 107,189.5C 101.023,194.102 96.8559,192.769 94.5,185.5C 95.0599,182.288 96.7266,179.955 99.5,178.5 Z"/></g>
<g><path style="opacity:1" fill="#f7f7f7" d="M 59.5,182.5 C 66.8421,182.207 68.8421,185.207 65.5,191.5C 57.4148,192.86 55.4148,189.86 59.5,182.5 Z"/></g>
<g><path style="opacity:1" fill="#eeeeee" d="M 83.5,185.5 C 90.0932,184.908 92.2598,187.574 90,193.5C 87.0854,196.07 84.4187,195.737 82,192.5C 81.1668,189.829 81.6668,187.496 83.5,185.5 Z"/></g>
<g><path style="opacity:1" fill="#f5f4f4" d="M 48.5,240.5 C 46.8333,240.5 45.1667,240.5 43.5,240.5C 42.5279,231.25 42.1945,221.917 42.5,212.5C 39.1501,212.665 35.8168,212.498 32.5,212C 31.4464,210.612 31.2797,209.112 32,207.5C 40.755,206.35 49.5883,206.184 58.5,207C 60.5254,208.194 60.8587,209.694 59.5,211.5C 56.2317,212.487 52.8984,212.82 49.5,212.5C 49.7799,221.886 49.4466,231.22 48.5,240.5 Z"/></g>
<g><path style="opacity:1" fill="#f2f1f1" d="M 122.5,240.5 C 119.5,240.5 116.5,240.5 113.5,240.5C 108.606,238.776 105.106,235.443 103,230.5C 99.8609,219.295 103.361,211.128 113.5,206C 126.459,204.312 133.459,209.979 134.5,223C 134.273,231.676 130.273,237.509 122.5,240.5 Z"/></g>
<g><path style="opacity:1" fill="#e21d46" d="M 171.5,240.5 C 166.167,240.5 160.833,240.5 155.5,240.5C 155.539,239.244 155.039,238.244 154,237.5C 153.333,228.167 153.333,218.833 154,209.5C 154.5,208.333 155.333,207.5 156.5,207C 158.833,206.833 161.167,206.667 163.5,206.5C 172.531,205.053 177.031,208.719 177,217.5C 173.46,220.894 173.794,223.894 178,226.5C 179.83,233.168 177.663,237.835 171.5,240.5 Z"/></g>
<g><path style="opacity:1" fill="#e52048" d="M 208.5,207.5 C 208.5,209.167 208.5,210.833 208.5,212.5C 204.833,212.5 201.167,212.5 197.5,212.5C 197.805,221.917 197.472,231.25 196.5,240.5C 194.833,240.5 193.167,240.5 191.5,240.5C 190.613,231.199 190.279,221.866 190.5,212.5C 187.102,212.82 183.768,212.487 180.5,211.5C 179.141,209.694 179.475,208.194 181.5,207C 190.578,206.196 199.578,206.363 208.5,207.5 Z"/></g>
<g><path style="opacity:1" fill="#f7f7f7" d="M 25.5,240.5 C 23.8333,240.5 22.1667,240.5 20.5,240.5C 19.8347,233.857 19.3347,227.191 19,220.5C 14.3354,227.325 9.50207,233.991 4.5,240.5C 2.83333,240.5 1.16667,240.5 -0.5,240.5C -0.5,229.833 -0.5,219.167 -0.5,208.5C 0.786619,206.429 2.45329,206.096 4.5,207.5C 5.33108,214.476 5.83108,221.476 6,228.5C 11.1169,221.048 16.6169,213.882 22.5,207C 23.549,206.508 24.549,206.674 25.5,207.5C 26.8087,218.561 26.8087,229.561 25.5,240.5 Z"/></g>
<g><path style="opacity:1" fill="#efeeee" d="M 95.5,240.5 C 93.8333,240.5 92.1667,240.5 90.5,240.5C 89.8902,239.609 89.5569,238.609 89.5,237.5C 89.6662,231.491 89.4995,225.491 89,219.5C 88.2828,220.044 87.7828,220.711 87.5,221.5C 85.71,225.435 83.21,228.768 80,231.5C 76.3995,228.994 73.7329,225.661 72,221.5C 71.7694,227.962 70.9361,234.295 69.5,240.5C 68.1667,240.5 66.8333,240.5 65.5,240.5C 64.3583,229.91 64.1917,219.243 65,208.5C 65.6891,207.643 66.5224,206.977 67.5,206.5C 72.6314,211.417 76.798,217.084 80,223.5C 83.1667,218.5 86.3333,213.5 89.5,208.5C 91.396,207.534 93.396,207.201 95.5,207.5C 95.5,218.5 95.5,229.5 95.5,240.5 Z"/></g>
<g><path style="opacity:1" fill="#060505" d="M 113.5,212.5 C 117.584,212.043 121.417,212.71 125,214.5C 128.493,221.005 127.993,227.171 123.5,233C 120.594,234.318 117.594,234.652 114.5,234C 112.667,233.5 111.5,232.333 111,230.5C 108.451,223.92 109.284,217.92 113.5,212.5 Z"/></g>
<g><path style="opacity:1" fill="#020000" d="M 160.5,212.5 C 163.187,212.336 165.854,212.503 168.5,213C 169.833,215 169.833,217 168.5,219C 165.883,219.822 163.216,220.322 160.5,220.5C 160.5,217.833 160.5,215.167 160.5,212.5 Z"/></g>
<g><path style="opacity:1" fill="#12090b" d="M 208.5,212.5 C 208.5,221.833 208.5,231.167 208.5,240.5C 204.5,240.5 200.5,240.5 196.5,240.5C 197.472,231.25 197.805,221.917 197.5,212.5C 201.167,212.5 204.833,212.5 208.5,212.5 Z"/></g>
<g><path style="opacity:1" fill="#060404" d="M 20.5,240.5 C 15.1667,240.5 9.83333,240.5 4.5,240.5C 9.50207,233.991 14.3354,227.325 19,220.5C 19.3347,227.191 19.8347,233.857 20.5,240.5 Z"/></g>
<g><path style="opacity:1" fill="#070405" d="M 87.5,221.5 C 88.1667,226.833 88.8333,232.167 89.5,237.5C 89.5569,238.609 89.8902,239.609 90.5,240.5C 83.5,240.5 76.5,240.5 69.5,240.5C 70.9361,234.295 71.7694,227.962 72,221.5C 73.7329,225.661 76.3995,228.994 80,231.5C 83.21,228.768 85.71,225.435 87.5,221.5 Z"/></g>
<g><path style="opacity:1" fill="#8d8b8b" d="M 89.5,237.5 C 88.8333,232.167 88.1667,226.833 87.5,221.5C 87.7828,220.711 88.2828,220.044 89,219.5C 89.4995,225.491 89.6662,231.491 89.5,237.5 Z"/></g>
<g><path style="opacity:1" fill="#020000" d="M 160.5,225.5 C 163.568,225.547 166.568,226.047 169.5,227C 172.167,229.333 172.167,231.667 169.5,234C 166.518,234.498 163.518,234.665 160.5,234.5C 160.5,231.5 160.5,228.5 160.5,225.5 Z"/></g>
</svg>
