<svg width="24" height="24" viewBox="0 0 24 24" fill="none" xmlns="http://www.w3.org/2000/svg">
<g clip-path="url(#clip0_98_1833)">
<path opacity="0.966" fill-rule="evenodd" clip-rule="evenodd" d="M23.9766 16.4766C23.9766 16.9766 23.9766 17.4765 23.9766 17.9766C23.478 20.7018 21.8843 22.4128 19.1953 23.1094C18.9623 23.1509 18.728 23.1821 18.4922 23.2031C12.3203 23.2266 6.14845 23.2344 -0.0234375 23.2266C-0.0234375 20.9297 -0.0234375 18.6328 -0.0234375 16.3359C0.298558 13.3619 1.70481 11.065 4.19531 9.44531C2.92624 7.85733 2.60593 6.09173 3.23438 4.14844C4.15473 1.97893 5.79534 0.838303 8.15625 0.726563C9.06038 0.719785 9.90413 0.938536 10.6875 1.38281C12.8571 0.332751 14.8805 0.559313 16.7578 2.0625C18.4405 3.75465 18.8858 5.73122 18.0938 7.99219C17.8651 8.52042 17.5604 8.997 17.1797 9.42188C17.6023 9.68002 18.0085 9.96127 18.3984 10.2656C18.7749 10.6264 19.1343 11.0014 19.4766 11.3906C22.0167 12.1725 23.5167 13.8678 23.9766 16.4766ZM7.75781 2.17969C9.69066 2.12175 11.0266 2.98112 11.7656 4.75781C12.2761 6.72797 11.6745 8.25141 9.96094 9.32813C8.17233 10.1355 6.60202 9.83086 5.25 8.41406C4.3471 7.24655 4.14398 5.96531 4.64062 4.57031C5.25445 3.21381 6.29348 2.41694 7.75781 2.17969ZM12.8672 2.17969C14.7758 2.14417 16.0961 3.00354 16.8281 4.75781C17.3386 6.72788 16.7371 8.25131 15.0234 9.32813C14.238 9.7372 13.4099 9.86222 12.5391 9.70313C12.3904 9.621 12.2498 9.52725 12.1172 9.42188C13.1653 8.19881 13.5794 6.78473 13.3594 5.17969C13.1832 4.1165 12.7379 3.18681 12.0234 2.39063C12.3056 2.29854 12.5869 2.22823 12.8672 2.17969ZM5.41406 10.4766C7.24195 11.4751 9.07008 11.4751 10.8984 10.4766C12.1065 11.0205 13.0597 11.8565 13.7578 12.9844C12.1915 14.6633 11.6837 16.6243 12.2344 18.8672C12.5752 20.0109 13.1925 20.9718 14.0859 21.75C9.85158 21.7734 5.61722 21.7813 1.38281 21.7734C1.36563 19.9915 1.38907 18.2102 1.45312 16.4297C1.68277 14.2744 2.62808 12.5166 4.28906 11.1563C4.65925 10.9167 5.03423 10.6901 5.41406 10.4766ZM15.9141 10.4766C16.3951 10.6858 16.8482 10.9436 17.2734 11.25C16.7981 11.3454 16.3293 11.4704 15.8672 11.625C15.5393 11.7816 15.2112 11.9222 14.8828 12.0469C14.6821 11.7368 14.4634 11.4399 14.2266 11.1563C14.8374 11.0338 15.3999 10.8072 15.9141 10.4766ZM17.6484 12.6797C19.7941 12.6541 21.3176 13.6073 22.2188 15.5391C22.8878 17.4913 22.4894 19.1865 21.0234 20.625C19.5483 21.8268 17.9233 22.0769 16.1484 21.375C14.2389 20.3928 13.3561 18.8225 13.5 16.6641C13.825 14.7923 14.8797 13.5345 16.6641 12.8906C16.9955 12.8041 17.3236 12.7338 17.6484 12.6797Z" fill="#E1E6EA"/>
<path opacity="0.964" fill-rule="evenodd" clip-rule="evenodd" d="M17.2734 14.5078C17.7578 14.5078 18.2422 14.5078 18.7266 14.5078C18.7266 15.1797 18.7266 15.8516 18.7266 16.5234C19.3984 16.5234 20.0703 16.5234 20.7422 16.5234C20.7422 17.0078 20.7422 17.4922 20.7422 17.9766C20.0703 17.9766 19.3984 17.9766 18.7266 17.9766C18.7266 18.6328 18.7266 19.2891 18.7266 19.9453C18.2422 19.9453 17.7578 19.9453 17.2734 19.9453C17.2734 19.2891 17.2734 18.6328 17.2734 17.9766C16.6172 17.9766 15.9609 17.9766 15.3047 17.9766C15.3047 17.4922 15.3047 17.0078 15.3047 16.5234C15.9609 16.5234 16.6172 16.5234 17.2734 16.5234C17.2734 15.8516 17.2734 15.1797 17.2734 14.5078Z" fill="#E1E6EA"/>
</g>
<defs>
<clipPath id="clip0_98_1833">
<rect width="24" height="24" fill="white"/>
</clipPath>
</defs>
</svg>
