<svg width="24" height="24" viewBox="0 0 24 24" fill="none" xmlns="http://www.w3.org/2000/svg">
<g clip-path="url(#clip0_55_1331)">
<path opacity="0.99" fill-rule="evenodd" clip-rule="evenodd" d="M2.27344 -0.0234375C5.6797 -0.0234375 9.08592 -0.0234375 12.4922 -0.0234375C12.5985 0.0457387 12.7079 0.116051 12.8203 0.1875C14.7669 2.11848 16.6966 4.0638 18.6094 6.02344C18.6406 6.08592 18.6719 6.14845 18.7031 6.21094C18.7344 6.94533 18.7344 7.67967 18.7031 8.41406C18.5496 8.84081 18.2449 9.05958 17.7891 9.07031C17.3333 9.05958 17.0286 8.84081 16.875 8.41406C16.8516 8.10197 16.8438 7.78945 16.8516 7.47656C12.3047 8.27344 10.4297 6.39844 11.2266 1.85156C8.41402 1.84375 5.60152 1.85156 2.78906 1.875C2.36075 1.89753 2.07168 2.10847 1.92188 2.50781C1.86766 5.66264 1.84423 8.81892 1.85156 11.9766C1.84423 15.1342 1.86766 18.2905 1.92188 21.4453C2.07168 21.8446 2.36075 22.0556 2.78906 22.0781C4.33878 22.0791 5.88567 22.1104 7.42969 22.1719C7.97437 22.5412 8.09156 23.0177 7.78125 23.6016C7.64742 23.7755 7.48336 23.9005 7.28906 23.9766C5.61717 23.9766 3.94531 23.9766 2.27344 23.9766C1.05469 23.664 0.289063 22.8984 -0.0234375 21.6797C-0.0234375 15.2109 -0.0234375 8.74219 -0.0234375 2.27344C0.288882 1.05487 1.05451 0.289243 2.27344 -0.0234375ZM13.1016 3.25781C13.889 4.02179 14.6702 4.79522 15.4453 5.57812C14.9766 5.60939 14.5078 5.60939 14.0391 5.57812C13.6108 5.55558 13.3217 5.34464 13.1719 4.94531C13.1079 4.38503 13.0845 3.82253 13.1016 3.25781Z" fill="#E1E6EA"/>
<path opacity="0.993" fill-rule="evenodd" clip-rule="evenodd" d="M4.33597 8.97656C7.67975 8.96873 11.0235 8.97656 14.3672 9C14.8947 9.25045 15.09 9.6645 14.9532 10.2422C14.8516 10.5313 14.6563 10.7265 14.3672 10.8281C11.0235 10.8594 7.67971 10.8594 4.33597 10.8281C3.71704 10.5149 3.55298 10.0383 3.84379 9.39844C3.97689 9.21905 4.14095 9.07842 4.33597 8.97656Z" fill="#E1E6EA"/>
<path opacity="0.968" fill-rule="evenodd" clip-rule="evenodd" d="M23.9766 13.1484C23.9766 13.3515 23.9766 13.5547 23.9766 13.7578C23.916 13.9095 23.83 14.0502 23.7188 14.1797C20.9128 17.0013 18.0925 19.806 15.2578 22.5938C14.8191 22.9378 14.3348 23.2034 13.8047 23.3906C12.9259 23.5959 12.0509 23.7913 11.1797 23.9766C10.9609 23.9766 10.7422 23.9766 10.5235 23.9766C10.0051 23.7368 9.79413 23.3306 9.89064 22.7578C10.0505 21.9271 10.2224 21.099 10.4063 20.2734C10.5965 19.6115 10.909 19.0178 11.3438 18.4922C14.1641 15.6719 16.9844 12.8516 19.8047 10.0313C20.2222 9.80081 20.6284 9.81642 21.0235 10.0781C21.9531 11.0078 22.8828 11.9375 23.8125 12.8672C23.8566 12.9716 23.9113 13.0653 23.9766 13.1484ZM20.3203 12.2109C20.7693 12.5895 21.199 12.9957 21.6094 13.4297C21.6407 13.461 21.6407 13.4922 21.6094 13.5234C19.086 16.0469 16.5625 18.5703 14.0391 21.0938C13.8438 21.2305 13.6407 21.3555 13.4297 21.4688C12.9907 21.6158 12.5454 21.733 12.0938 21.8203C12.1078 20.981 12.3891 20.2466 12.9375 19.6172C15.4079 17.1546 17.8688 14.6859 20.3203 12.2109Z" fill="#E1E6EA"/>
<path opacity="0.991" fill-rule="evenodd" clip-rule="evenodd" d="M4.33597 12.7266C7.07038 12.7187 9.80479 12.7266 12.5391 12.75C13.0487 12.9643 13.2596 13.3471 13.1719 13.8984C13.0735 14.2312 12.8626 14.4577 12.5391 14.5781C9.80474 14.6094 7.07033 14.6094 4.33597 14.5781C3.71704 14.2649 3.55298 13.7883 3.84379 13.1484C3.97689 12.969 4.14095 12.8284 4.33597 12.7266Z" fill="#E1E6EA"/>
<path opacity="0.985" fill-rule="evenodd" clip-rule="evenodd" d="M4.33597 16.4766C5.89855 16.4687 7.46104 16.4766 9.02347 16.5C9.55091 16.7505 9.74624 17.1645 9.60941 17.7422C9.50783 18.0313 9.31255 18.2265 9.02347 18.3281C7.46099 18.3594 5.89846 18.3594 4.33597 18.3281C3.71704 18.0149 3.55298 17.5383 3.84379 16.8984C3.97689 16.719 4.14095 16.5784 4.33597 16.4766Z" fill="#E1E6EA"/>
</g>
<defs>
<clipPath id="clip0_55_1331">
<rect width="24" height="24" fill="white"/>
</clipPath>
</defs>
</svg>
