<svg width="24" height="24" viewBox="0 0 24 24" fill="none" xmlns="http://www.w3.org/2000/svg">
<g clip-path="url(#clip0_227_665)">
<path opacity="0.973" fill-rule="evenodd" clip-rule="evenodd" d="M23.9766 10.8984C23.9766 11.6328 23.9766 12.3672 23.9766 13.1015C23.4437 17.2667 21.2874 20.2589 17.5078 22.0781C13.9999 23.5012 10.6093 23.2669 7.33594 21.375C6.05292 20.5452 4.96697 19.5061 4.07812 18.2578C3.80184 17.6547 3.93466 17.1625 4.47656 16.7812C4.96247 16.5909 5.39213 16.6768 5.76562 17.039C7.54683 19.5395 9.98433 20.852 13.0781 20.9765C16.8213 20.7857 19.5244 19.0201 21.1875 15.6797C22.4874 12.4358 22.1124 9.40456 20.0625 6.58592C17.81 3.91001 14.9428 2.82407 11.4609 3.32811C7.89548 4.13573 5.56739 6.28419 4.47656 9.77342C4.49219 9.78903 4.50781 9.80469 4.52344 9.8203C5.05439 9.44534 5.60128 9.09378 6.16406 8.76561C7.09594 8.61931 7.54125 9.01775 7.5 9.96092C7.47558 10.1191 7.41309 10.2597 7.3125 10.3828C6.08034 11.271 4.8225 12.1226 3.53906 12.9375C3.06728 13.0715 2.66884 12.9543 2.34375 12.5859C1.54125 11.3862 0.752184 10.1832 -0.0234375 8.97655C-0.0234375 8.72656 -0.0234375 8.47653 -0.0234375 8.22655C0.298327 7.62875 0.782705 7.44908 1.42969 7.68748C1.56072 7.77153 1.6779 7.87311 1.78125 7.99217C2.03125 8.36717 2.28125 8.74217 2.53125 9.11717C3.69862 5.18417 6.2377 2.59824 10.1484 1.35936C14.4455 0.34414 18.1252 1.41445 21.1875 4.5703C22.7817 6.38398 23.7114 8.49336 23.9766 10.8984Z" fill="#E1E6EA"/>
<path opacity="0.976" fill-rule="evenodd" clip-rule="evenodd" d="M12.9141 5.88281C13.4534 5.90578 13.805 6.17142 13.9688 6.67969C13.9844 8.3047 14 9.92967 14.0156 11.5547C15.0357 12.5277 16.0044 13.5434 16.9219 14.6016C17.1051 15.6034 16.691 16.0643 15.6797 15.9844C15.5416 15.9466 15.4166 15.8841 15.3047 15.7969C14.233 14.7409 13.1784 13.6706 12.1406 12.5859C12.0938 12.4922 12.0469 12.3984 12 12.3047C11.9687 10.3984 11.9687 8.4922 12 6.58594C12.1667 6.16369 12.4714 5.92931 12.9141 5.88281Z" fill="#E1E6EA"/>
</g>
<defs>
<clipPath id="clip0_227_665">
<rect width="24" height="24" fill="white"/>
</clipPath>
</defs>
</svg>
