<svg width="16" height="16" viewBox="0 0 16 16" fill="none" xmlns="http://www.w3.org/2000/svg">
<g clip-path="url(#clip0_55_1394)">
<path opacity="0.987" fill-rule="evenodd" clip-rule="evenodd" d="M3.10938 -0.015625C5.68228 -0.015625 8.25522 -0.015625 10.8281 -0.015625C11.2982 0.211326 11.4492 0.575909 11.2813 1.07812C11.1779 1.27848 11.0165 1.40869 10.7969 1.46875C8.36978 1.47917 5.94272 1.48958 3.51563 1.5C3.02598 1.54396 2.70827 1.79917 2.5625 2.26562C2.54167 6.07812 2.54167 9.89062 2.5625 13.7031C2.70827 14.1696 3.02598 14.4248 3.51563 14.4688C5.95313 14.4792 8.39063 14.4896 10.8281 14.5C11.3262 14.7438 11.4668 15.124 11.25 15.6406C11.1295 15.7979 10.9784 15.9125 10.7969 15.9844C8.23438 15.9844 5.67188 15.9844 3.10938 15.9844C2.09943 15.7611 1.42756 15.1569 1.09375 14.1719C1.0662 14.0691 1.04537 13.9649 1.03125 13.8594C1.01042 9.94272 1.01042 6.02603 1.03125 2.10938C1.18735 1.18797 1.69255 0.536934 2.54688 0.15625C2.73534 0.0885113 2.92284 0.0312195 3.10938 -0.015625Z" fill="#E1E6EA"/>
<path opacity="0.987" fill-rule="evenodd" clip-rule="evenodd" d="M10.5157 3.64062C10.7169 3.634 10.9044 3.68087 11.0782 3.78125C12.3334 5.03647 13.5886 6.29165 14.8438 7.54687C14.9896 7.83853 14.9896 8.13022 14.8438 8.42187C13.5886 9.67709 12.3334 10.9323 11.0782 12.1875C10.5559 12.4436 10.1653 12.3134 9.90629 11.7969C9.836 11.5544 9.86725 11.3252 10 11.1094C10.7865 10.3229 11.5729 9.53647 12.3594 8.75C10.3282 8.73959 8.29691 8.72915 6.26566 8.71875C5.82872 8.54822 5.65685 8.2305 5.75004 7.76562C5.83857 7.5104 6.01044 7.33853 6.26566 7.25C8.29691 7.23959 10.3282 7.22915 12.3594 7.21875C11.5729 6.43228 10.7865 5.64584 10 4.85937C9.78444 4.47465 9.83132 4.12572 10.1407 3.8125C10.2589 3.73347 10.3839 3.67618 10.5157 3.64062Z" fill="#E1E6EA"/>
</g>
<defs>
<clipPath id="clip0_55_1394">
<rect width="16" height="16" fill="white"/>
</clipPath>
</defs>
</svg>
