<svg width="24" height="24" viewBox="0 0 24 24" fill="none" xmlns="http://www.w3.org/2000/svg">
<g clip-path="url(#clip0_226_657)">
<path opacity="0.958" fill-rule="evenodd" clip-rule="evenodd" d="M3.25781 -0.0234375C6.17967 -0.0234375 9.10158 -0.0234375 12.0234 -0.0234375C13.8517 1.81263 15.6407 3.68763 17.3906 5.60156C17.3985 7.17994 17.4219 8.75803 17.4609 10.3359C20.0541 11.015 21.7807 12.6244 22.6406 15.1641C23.3137 17.9026 22.6496 20.2541 20.6484 22.2188C19.5362 23.1733 18.2549 23.7592 16.8047 23.9766C16.2735 23.9766 15.7422 23.9766 15.2109 23.9766C13.0014 23.6534 11.2983 22.5518 10.1016 20.6719C7.83595 20.6563 5.5703 20.6406 3.30469 20.625C2.08352 20.3882 1.34134 19.6617 1.07813 18.4453C1.04687 13.0234 1.04687 7.60158 1.07813 2.17969C1.34567 0.982491 2.07223 0.248115 3.25781 -0.0234375ZM3.44531 1.00781C6.0547 1.00781 8.66405 1.00781 11.2734 1.00781C11.2537 2.21237 11.2771 3.4155 11.3438 4.61719C11.618 5.57953 12.2508 6.14981 13.2422 6.32812C14.289 6.35156 15.3358 6.35939 16.3828 6.35156C16.3828 7.6328 16.3828 8.91408 16.3828 10.1953C14.5159 10.1378 12.8753 10.7081 11.4609 11.9062C9.23827 11.9067 7.01953 11.9379 4.80469 12C4.54767 12.2229 4.50861 12.4807 4.6875 12.7734C4.76152 12.8457 4.84749 12.9004 4.94531 12.9375C6.78905 12.9531 8.63283 12.9688 10.4766 12.9844C10.1303 13.4184 9.84909 13.895 9.63281 14.4141C8.08617 14.4531 6.5393 14.4765 4.99219 14.4844C4.62286 14.6226 4.50568 14.8804 4.64063 15.2578C4.71295 15.3458 4.79888 15.4162 4.89844 15.4688C6.35147 15.4922 7.80459 15.5 9.25781 15.4922C9.03933 16.6887 9.07842 17.8762 9.375 19.0547C9.42717 19.2426 9.49749 19.4222 9.58594 19.5938C7.58592 19.625 5.58595 19.625 3.58594 19.5938C2.80279 19.4647 2.31061 19.0194 2.10938 18.2578C2.07812 12.9609 2.07812 7.66406 2.10938 2.36719C2.28194 1.63998 2.72725 1.18685 3.44531 1.00781ZM12.3516 1.85156C13.4516 2.9907 14.5453 4.13914 15.6328 5.29688C14.8984 5.32814 14.1641 5.32814 13.4297 5.29688C12.8889 5.20913 12.5373 4.90444 12.375 4.38281C12.3516 3.53921 12.3437 2.69546 12.3516 1.85156ZM15.3047 11.2734C17.7858 11.1116 19.6998 12.0648 21.0469 14.1328C22.241 16.4094 22.1003 18.5969 20.625 20.6953C18.9752 22.6306 16.9049 23.3103 14.4141 22.7344C12.065 21.9634 10.6666 20.3618 10.2188 17.9297C9.98377 15.7747 10.6791 13.9857 12.3047 12.5625C13.1918 11.8634 14.1917 11.4337 15.3047 11.2734Z" fill="#E1E6EA"/>
<path opacity="0.924" fill-rule="evenodd" clip-rule="evenodd" d="M4.99222 9.39844C6.7423 9.39062 8.49229 9.39844 10.2422 9.42188C10.6113 9.52688 10.7442 9.76908 10.6407 10.1484C10.5531 10.3369 10.4046 10.4385 10.1953 10.4531C8.49224 10.4844 6.78908 10.4844 5.08597 10.4531C4.60273 10.333 4.46992 10.0439 4.68754 9.58594C4.78574 9.50977 4.88727 9.44729 4.99222 9.39844Z" fill="#E1E6EA"/>
<path opacity="0.953" fill-rule="evenodd" clip-rule="evenodd" d="M15.8203 13.2422C15.9833 13.2274 16.1396 13.2508 16.2891 13.3125C17.2969 14.3828 18.3047 15.4532 19.3125 16.5235C19.5487 16.8836 19.4783 17.1726 19.1016 17.3907C18.9163 17.4334 18.7444 17.4021 18.5859 17.2969C17.9226 16.5569 17.2429 15.8304 16.5469 15.1172C16.5313 16.961 16.5156 18.8047 16.5 20.6485C16.4195 20.8804 16.2555 21.0054 16.0078 21.0235C15.777 20.9827 15.613 20.8577 15.5156 20.6485C15.5 18.8047 15.4844 16.961 15.4688 15.1172C14.7728 15.8304 14.0931 16.5569 13.4297 17.2969C12.9616 17.5389 12.6647 17.406 12.5391 16.8985C12.5792 16.6775 12.6808 16.49 12.8438 16.336C13.714 15.423 14.5734 14.5011 15.4219 13.5703C15.5363 13.4319 15.6691 13.3225 15.8203 13.2422Z" fill="#E1E6EA"/>
</g>
<defs>
<clipPath id="clip0_226_657">
<rect width="24" height="24" fill="white"/>
</clipPath>
</defs>
</svg>
